<?xml version="1.0" standalone="no"?>
<!DOCTYPE svg PUBLIC "-//W3C//DTD SVG 20010904//EN"
 "http://www.w3.org/TR/2001/REC-SVG-20010904/DTD/svg10.dtd">
<svg version="1.0" xmlns="http://www.w3.org/2000/svg"
 width="3168.000000pt" height="700.000000pt" viewBox="0 0 3168.000000 700.000000"
 preserveAspectRatio="xMidYMid meet">

<g transform="translate(0.000000,700.000000) scale(0.100000,-0.100000)"
fill="#000000" stroke="none">
<path d="M1650 5593 c0 -6 8 -17 18 -24 16 -13 16 -13 2 6 -8 11 -16 22 -17
24 -2 2 -3 0 -3 -6z"/>
<path d="M3280 5552 l-45 -3 2 -37 c1 -20 2 -142 2 -269 l1 -233 50 0 50 0 0
269 c0 149 -3 271 -7 273 -5 2 -28 2 -53 0z"/>
<path d="M2112 5283 l3 -268 53 -3 52 -3 0 126 c0 120 1 127 25 150 29 30 75
33 98 7 13 -14 17 -45 19 -147 l3 -130 53 -3 52 -3 0 146 c0 166 -10 203 -62
235 -45 27 -121 27 -156 -1 l-27 -21 -3 91 -3 91 -55 0 -54 0 2 -267z"/>
<path d="M3010 5280 l0 -270 55 0 55 0 0 270 -1 270 -55 0 -54 0 0 -270z"/>
<path d="M3901 5428 c1 -68 4 -157 8 -198 l6 -75 41 -3 c40 -3 42 -2 47 30 4
18 9 108 13 201 l7 167 -61 0 -62 0 1 -122z"/>
<path d="M4320 5280 l0 -270 60 0 60 0 0 270 0 270 -60 0 -60 0 0 -270z"/>
<path d="M2665 5400 c-3 -5 -14 -10 -24 -10 -44 0 -101 -98 -101 -175 0 -151
144 -246 282 -186 48 20 74 46 80 76 2 16 -5 20 -47 28 -40 7 -52 5 -61 -7
-26 -37 -144 -4 -144 40 0 11 25 14 135 14 l135 0 0 44 c0 76 -37 138 -102
172 -31 16 -144 19 -153 4z m131 -117 l29 -28 -42 -3 c-23 -2 -64 -2 -90 0
l-48 3 27 28 c19 19 37 27 61 27 23 0 43 -9 63 -27z"/>
<path d="M3531 5392 c-19 -9 -48 -34 -65 -55 -29 -36 -31 -44 -31 -121 0 -73
3 -87 27 -123 71 -108 245 -107 320 2 70 101 29 256 -79 301 -45 19 -131 17
-172 -4z m133 -93 c32 -15 50 -60 43 -107 -8 -46 -38 -72 -86 -72 -68 0 -110
75 -77 138 26 50 68 64 120 41z"/>
<path d="M4819 5387 c-36 -24 -82 -84 -74 -97 8 -13 98 -9 122 6 31 20 60 17
84 -7 26 -26 17 -36 -41 -42 -81 -9 -124 -25 -154 -58 -24 -27 -27 -38 -23
-73 12 -92 128 -138 203 -81 18 14 35 25 39 25 3 0 3 -11 -1 -25 -6 -24 -5
-25 45 -25 l51 0 0 151 c0 171 -10 202 -74 233 -51 24 -136 21 -177 -7z m149
-221 c3 -3 -5 -17 -18 -31 -29 -31 -94 -36 -105 -8 -11 29 32 56 78 50 21 -3
41 -8 45 -11z"/>
<path d="M5162 5213 l3 -198 51 -3 52 -3 3 130 c3 102 7 134 20 146 19 19 79
29 98 16 18 -12 30 -85 30 -198 l1 -93 49 0 49 0 4 131 c3 123 4 132 27 150
29 24 73 24 94 1 13 -14 17 -45 19 -147 l3 -130 53 -3 52 -3 0 146 c0 166 -10
203 -62 235 -50 31 -137 28 -177 -6 l-31 -25 -33 25 c-44 34 -134 37 -162 6
-22 -25 -37 -26 -33 -2 3 14 -6 17 -55 20 l-57 3 2 -198z"/>
<path d="M3900 5065 l0 -55 60 0 60 0 0 55 0 55 -60 0 -60 0 0 -55z"/>
<path d="M12454 4870 c-139 -70 -204 -199 -204 -407 l0 -83 -105 0 -105 0 0
-160 0 -160 105 0 105 0 0 -485 0 -485 178 0 177 0 0 482 c0 422 2 483 15 484
8 1 68 2 133 2 l117 2 0 160 0 160 -136 0 -137 0 6 78 c3 43 9 86 13 95 13 34
58 47 164 47 l100 0 0 121 0 120 -47 22 c-41 19 -69 22 -193 25 -130 2 -149 1
-186 -18z"/>
<path d="M13270 4864 c-68 -39 -125 -100 -156 -168 -25 -54 -28 -76 -32 -188
l-4 -128 -99 0 -99 0 0 -159 0 -159 25 -4 c13 -3 58 -3 100 -1 l75 5 0 -486 0
-486 175 0 175 0 0 485 0 485 140 0 140 0 0 160 0 160 -140 0 -140 0 0 70 c0
76 16 122 49 140 11 5 67 10 126 10 l106 0 -3 122 -3 123 -55 22 c-48 19 -74
22 -195 23 -132 0 -143 -2 -185 -26z"/>
<path d="M6518 4842 l-38 -3 0 -875 0 -874 161 0 161 0 -3 105 c-1 58 0 107 3
111 4 3 14 -9 23 -27 24 -46 100 -124 149 -153 126 -73 310 -75 451 -4 59 31
162 135 200 203 132 237 130 605 -6 831 -19 31 -62 82 -96 114 -103 96 -215
137 -353 127 -117 -8 -183 -38 -263 -118 -37 -38 -68 -69 -70 -69 -1 0 -1 142
1 315 l3 315 -103 1 c-57 1 -121 2 -143 3 -22 0 -57 0 -77 -2z m687 -806 c58
-26 109 -80 139 -145 18 -39 21 -65 21 -161 0 -105 -3 -119 -27 -166 -30 -58
-91 -117 -144 -139 -20 -8 -64 -15 -98 -15 -114 0 -212 72 -251 185 -25 69
-25 204 -1 273 23 67 105 157 161 177 62 22 142 18 200 -9z"/>
<path d="M9388 4842 l-58 -3 0 -874 0 -875 161 0 162 0 -5 105 c-3 58 -2 105
2 105 4 0 21 -22 39 -49 114 -177 365 -233 578 -130 78 38 175 143 221 240 62
131 76 200 76 374 0 174 -14 243 -75 373 -105 219 -338 336 -554 278 -93 -24
-177 -80 -215 -141 -12 -19 -26 -35 -31 -35 -5 0 -9 131 -9 318 l0 317 -118 0
c-64 0 -143 -1 -174 -3z m647 -798 c60 -21 114 -74 150 -149 25 -50 29 -70 29
-149 1 -111 -14 -168 -62 -232 -51 -67 -124 -104 -208 -104 -75 0 -122 18
-179 71 -68 63 -90 123 -90 249 0 95 3 111 29 168 63 135 193 193 331 146z"/>
<path d="M1992 4384 c-77 -20 -110 -40 -168 -100 -28 -30 -54 -54 -56 -54 -3
0 -3 34 0 75 l5 75 -182 0 -181 0 0 -645 1 -645 179 0 180 0 0 383 c0 228 4
397 10 419 16 55 91 133 147 152 54 18 129 21 170 5 15 -5 43 -24 60 -41 59
-57 62 -81 65 -518 l3 -395 178 -3 177 -2 0 392 c0 447 -1 441 83 514 129 114
314 74 357 -77 6 -19 10 -204 10 -431 l0 -398 181 0 180 0 -3 453 c-4 389 -7
460 -21 512 -52 181 -169 293 -346 331 -189 40 -360 -4 -479 -123 l-55 -55
-26 34 c-84 108 -198 159 -355 157 -33 0 -85 -7 -114 -15z"/>
<path d="M5545 4393 c-126 -18 -225 -63 -306 -140 -81 -77 -113 -151 -114
-263 0 -117 17 -170 78 -237 75 -82 153 -114 377 -158 117 -22 181 -44 208
-69 20 -17 23 -28 19 -61 -9 -66 -83 -115 -175 -115 -70 0 -155 56 -167 111
-4 18 -15 31 -28 34 -12 3 -94 4 -182 3 l-160 -3 3 -53 c9 -178 156 -319 372
-358 242 -43 493 11 614 132 129 129 143 337 30 463 -62 69 -135 102 -344 156
-193 50 -239 69 -258 107 -18 38 4 96 46 124 92 62 223 26 257 -71 l13 -40
174 4 c95 2 175 5 177 7 9 8 -19 128 -40 172 -33 68 -134 164 -213 202 -107
51 -251 71 -381 53z"/>
<path d="M8350 4394 c-198 -39 -365 -170 -421 -331 -34 -99 -44 -93 155 -93
164 0 175 1 181 19 11 36 80 88 133 101 66 15 144 -5 187 -50 27 -28 29 -36
30 -108 l0 -77 -140 -6 c-298 -13 -473 -77 -550 -199 -57 -91 -70 -238 -30
-352 20 -57 91 -139 149 -173 116 -67 324 -74 464 -14 23 10 67 41 96 69 29
27 56 50 59 50 3 0 3 -31 0 -70 l-6 -70 157 0 157 0 -3 488 -3 487 -28 59
c-81 173 -233 263 -457 271 -58 2 -116 1 -130 -1z m270 -806 c0 -68 -19 -117
-61 -163 -63 -68 -156 -91 -242 -61 -51 19 -75 42 -88 86 -9 31 -8 44 6 73 32
69 133 105 298 106 l87 1 0 -42z"/>
<path d="M11163 4385 c-131 -28 -271 -119 -335 -216 -37 -57 -68 -137 -68
-176 l0 -23 168 0 169 0 24 37 c53 82 176 112 266 65 54 -28 71 -61 74 -148
l3 -69 -150 -6 c-311 -14 -484 -85 -562 -234 -25 -46 -27 -60 -27 -165 0 -103
3 -121 26 -170 35 -76 77 -121 146 -157 71 -38 141 -53 236 -53 143 1 242 36
328 117 l49 46 0 -72 0 -71 153 0 152 0 -3 477 c-2 408 -5 485 -19 528 -71
221 -353 350 -630 290z m298 -760 c3 -2 2 -34 -2 -71 -9 -87 -44 -139 -118
-176 -122 -62 -271 -5 -271 103 0 68 66 119 180 139 51 9 204 13 211 5z"/>
<path d="M3670 3962 c0 -456 7 -540 55 -648 69 -156 215 -244 405 -244 134 0
233 40 308 125 22 25 42 45 45 45 3 0 3 -34 0 -75 l-6 -75 182 0 182 0 -2 645
-1 645 -179 0 -179 0 0 -384 c0 -429 -1 -440 -68 -510 -50 -51 -109 -76 -184
-76 -87 0 -137 31 -175 107 l-28 58 -3 400 -2 400 -175 3 -175 2 0 -418z"/>
<path d="M18976 2686 c-8 -6 -19 -31 -24 -56 -5 -25 -30 -119 -55 -210 -52
-187 -227 -839 -227 -844 0 -1 22 -3 49 -3 l49 -1 16 52 c8 28 31 114 51 191
20 77 60 230 90 340 30 110 74 274 99 365 24 91 43 166 41 168 -9 10 -76 8
-89 -2z"/>
<path d="M3613 2682 l-103 -3 0 -201 0 -202 -35 41 c-42 49 -113 81 -185 83
-152 4 -271 -96 -316 -265 -16 -58 -18 -221 -4 -283 43 -186 206 -308 363
-273 67 15 134 58 167 107 l25 38 3 -66 3 -67 97 2 97 2 3 539 c2 297 -1 542
-5 545 -4 3 -54 5 -110 3z m-193 -507 c91 -47 126 -196 70 -304 -28 -56 -74
-81 -149 -81 -56 0 -64 3 -100 36 -47 41 -64 87 -64 165 0 71 34 145 82 176
40 27 117 31 161 8z"/>
<path d="M4948 2682 l-108 -3 0 -92 c0 -83 -4 -102 -35 -180 -19 -48 -35 -91
-35 -97 0 -5 24 -10 54 -10 l54 0 90 95 91 94 3 97 c2 53 1 97 -2 97 -3 1 -53
1 -112 -1z"/>
<path d="M4372 2138 l3 -543 118 -2 117 -2 0 545 0 544 -120 0 -120 0 2 -542z"/>
<path d="M19652 2481 l3 -199 -51 48 c-52 50 -93 67 -169 71 -81 5 -142 -19
-212 -84 -172 -158 -159 -543 23 -682 41 -31 131 -64 176 -63 84 0 179 50 221
114 12 18 26 34 30 34 4 0 5 -26 1 -59 -6 -55 -5 -58 17 -64 13 -4 59 -7 102
-7 l77 0 0 545 0 545 -111 0 -111 0 4 -199z m-72 -313 c78 -53 106 -190 58
-286 -32 -65 -76 -92 -147 -92 -98 0 -159 63 -169 175 -6 76 13 133 63 182 40
41 45 43 102 43 46 0 68 -5 93 -22z"/>
<path d="M22702 2138 l3 -543 108 -2 107 -1 0 544 0 544 -110 0 -110 0 2 -542z"/>
<path d="M11087 2553 c-3 -5 -8 -33 -11 -63 -15 -118 -9 -110 -87 -110 l-69 0
0 -105 0 -105 70 0 70 0 0 -212 c0 -244 6 -268 79 -330 69 -59 160 -71 266
-36 l40 13 0 85 0 85 -66 3 c-97 4 -96 3 -101 215 l-4 177 88 0 88 0 0 105 0
104 -87 3 -88 3 2 88 3 87 -94 0 c-52 0 -97 -3 -99 -7z"/>
<path d="M1494 2394 c-129 -28 -232 -120 -258 -226 l-6 -28 104 0 104 0 41 41
c40 40 43 41 93 37 70 -7 98 -39 98 -109 l0 -49 -63 0 c-35 0 -66 -3 -69 -6
-4 -3 -30 -7 -60 -9 -65 -4 -158 -38 -199 -72 -68 -58 -91 -179 -50 -269 34
-75 137 -134 235 -134 79 0 178 39 216 85 21 26 31 17 24 -25 l-7 -40 97 0 96
0 0 300 c0 329 -1 336 -60 404 -78 88 -212 128 -336 100z m176 -518 c0 -81
-81 -156 -154 -142 -69 13 -102 63 -80 121 13 34 95 61 192 64 l42 1 0 -44z"/>
<path d="M2447 2389 c-27 -9 -65 -33 -86 -53 -20 -20 -40 -36 -43 -36 -3 0 -4
18 -1 40 l6 40 -112 0 -111 0 0 -394 0 -394 110 -1 110 -1 0 247 c0 230 2 250
20 281 29 47 76 72 135 72 54 0 86 -16 107 -53 9 -15 14 -100 18 -282 l5 -260
108 -3 107 -3 0 270 c0 277 -7 345 -41 413 -52 103 -210 158 -332 117z"/>
<path d="M5574 2389 c-26 -10 -64 -34 -84 -54 -20 -19 -39 -35 -43 -35 -4 0
-4 18 -1 40 l7 40 -112 0 -111 0 0 -395 0 -396 108 3 107 3 5 250 c5 262 7
270 54 314 32 30 123 41 163 20 53 -28 58 -53 63 -329 l5 -255 108 -3 107 -3
0 248 c0 230 2 250 20 281 29 47 75 72 137 72 62 0 109 -33 118 -83 3 -18 7
-140 8 -272 l2 -240 108 0 108 0 -1 285 c0 335 -4 354 -86 437 -40 40 -64 55
-108 68 -127 37 -247 13 -320 -64 -37 -39 -47 -39 -74 -1 -53 71 -193 105
-288 69z"/>
<path d="M7260 2394 c-128 -32 -221 -116 -255 -231 -6 -23 -6 -23 104 -23 101
0 111 2 121 21 17 31 70 59 112 59 56 0 94 -40 101 -107 l6 -51 -77 -6 c-42
-3 -86 -5 -97 -6 -48 -2 -153 -33 -193 -56 -23 -14 -55 -44 -70 -66 -23 -36
-27 -52 -27 -117 0 -129 60 -205 185 -231 91 -19 221 8 260 55 7 9 21 20 31
26 16 8 18 5 16 -28 l-2 -38 93 -3 92 -3 0 293 c0 177 -4 308 -11 332 -13 47
-79 120 -134 148 -74 39 -177 51 -255 32z m184 -499 c-1 -11 -2 -32 -2 -47 -2
-34 -42 -81 -88 -103 -98 -46 -203 55 -129 125 31 29 105 50 170 47 43 -2 50
-5 49 -22z"/>
<path d="M8217 2389 c-27 -9 -66 -34 -88 -55 l-39 -38 0 42 0 42 -110 0 -110
0 2 -392 3 -393 108 -3 107 -3 0 248 0 248 25 38 c33 47 72 67 132 67 56 0 85
-17 111 -63 15 -28 17 -67 20 -284 l4 -253 104 0 105 0 -3 303 c-3 291 -4 304
-26 352 -39 85 -98 133 -187 150 -63 13 -106 11 -158 -6z"/>
<path d="M9405 2385 c-81 -24 -112 -43 -176 -112 -60 -64 -90 -142 -96 -254
-19 -313 210 -501 523 -429 70 15 151 66 191 118 18 24 33 47 33 50 0 4 -44
21 -98 38 l-97 32 -35 -38 c-66 -71 -170 -72 -242 -3 -31 29 -64 105 -53 122
4 7 94 11 275 11 l268 0 6 26 c9 33 -1 122 -20 188 -58 204 -266 312 -479 251z
m191 -186 c38 -23 66 -59 82 -106 l11 -33 -169 0 -169 0 15 42 c8 23 25 53 37
66 49 53 135 67 193 31z"/>
<path d="M10395 2388 c-27 -11 -67 -36 -87 -56 l-38 -36 0 42 0 42 -110 0
-110 0 2 -392 3 -393 108 -3 107 -3 0 248 c0 230 2 250 20 281 29 47 76 72
135 72 58 0 87 -16 113 -63 15 -28 17 -66 20 -282 l2 -250 106 -3 105 -3 -3
303 c-3 292 -4 305 -26 353 -42 92 -106 139 -203 150 -30 3 -63 8 -74 9 -11 2
-42 -5 -70 -16z"/>
<path d="M12437 2393 c-121 -30 -208 -100 -260 -211 -28 -59 -32 -79 -35 -172
-4 -119 15 -198 68 -276 87 -126 262 -190 417 -153 75 18 125 38 167 67 37 26
86 86 86 107 0 6 -39 24 -87 39 -49 16 -93 31 -99 33 -5 2 -17 -8 -24 -23 -15
-28 -69 -60 -116 -68 -69 -13 -161 51 -188 130 -8 23 -12 45 -8 48 3 3 128 6
279 6 l273 0 0 80 c0 171 -75 296 -220 370 -66 33 -173 43 -253 23z m162 -193
c40 -20 74 -65 86 -112 l7 -28 -165 0 -166 0 9 30 c32 110 133 159 229 110z"/>
<path d="M13436 2393 c-43 -15 -93 -48 -117 -78 -9 -11 -26 -31 -38 -45 l-21
-25 6 68 7 67 -102 0 -101 0 0 -540 0 -540 111 0 111 0 -4 195 c-2 107 -1 195
1 195 2 0 27 -21 55 -47 76 -70 153 -87 250 -58 68 21 112 50 156 106 68 86
84 144 84 299 0 118 -2 142 -23 190 -43 104 -128 188 -210 209 -63 16 -125 17
-165 4z m104 -225 c100 -68 109 -262 16 -348 -36 -33 -122 -43 -175 -19 -109
49 -136 235 -49 335 39 44 59 53 124 53 37 1 60 -5 84 -21z"/>
<path d="M14837 2393 c-117 -29 -208 -103 -261 -213 -30 -62 -31 -70 -31 -191
l0 -126 40 -79 c47 -91 109 -148 202 -185 46 -18 77 -23 153 -23 145 1 257 48
320 136 17 22 30 44 30 47 0 5 -109 43 -195 69 -6 1 -18 -11 -28 -28 -31 -52
-125 -79 -185 -54 -49 20 -81 51 -103 99 -37 80 -53 75 255 75 l274 0 4 35 c7
59 -9 171 -32 221 -74 168 -265 261 -443 217z m187 -206 c31 -25 76 -110 64
-122 -3 -3 -77 -4 -166 -3 l-160 3 13 38 c37 109 161 150 249 84z"/>
<path d="M15806 2390 c-27 -11 -67 -36 -88 -57 l-38 -37 0 42 0 42 -110 0
-110 0 0 -395 0 -395 110 0 110 0 0 248 c0 229 2 249 20 280 29 47 76 72 135
72 54 0 86 -16 107 -53 9 -15 14 -100 18 -282 l5 -260 108 -3 107 -3 0 275 c0
156 -5 296 -11 325 -24 112 -111 194 -218 206 -31 3 -65 8 -76 10 -11 2 -42
-5 -69 -15z"/>
<path d="M16621 2389 c-80 -23 -117 -44 -173 -100 -122 -122 -150 -337 -68
-506 62 -126 205 -213 351 -213 74 0 198 36 254 75 46 32 95 89 95 111 0 5
-43 23 -96 41 l-96 32 -36 -39 c-70 -73 -172 -75 -238 -4 -31 32 -68 117 -56
128 3 3 128 6 279 6 l273 0 0 74 c0 89 -25 176 -70 247 -84 130 -260 193 -419
148z m181 -191 c41 -23 71 -64 82 -110 l6 -28 -165 0 -165 0 6 28 c26 110 141
163 236 110z"/>
<path d="M20322 2384 c-115 -35 -187 -98 -240 -212 -25 -52 -27 -67 -27 -182
0 -120 1 -128 32 -192 35 -75 100 -146 162 -177 171 -88 417 -46 518 88 19 24
31 46 28 49 -5 5 -129 51 -185 68 -10 3 -21 -5 -30 -21 -17 -32 -74 -63 -126
-69 -67 -7 -137 42 -169 116 -30 72 -45 68 260 68 l275 0 0 73 c0 40 -7 100
-15 132 -55 210 -268 325 -483 259z m207 -193 c17 -12 40 -40 51 -61 36 -72
40 -70 -146 -70 l-165 0 7 23 c17 55 50 97 99 126 31 18 117 8 154 -18z"/>
<path d="M22051 2390 c-158 -44 -257 -160 -284 -331 -28 -183 59 -370 205
-441 114 -55 215 -60 352 -18 56 18 79 32 127 79 33 31 59 64 59 71 -1 10 -35
26 -96 47 l-96 32 -36 -39 c-41 -42 -105 -65 -152 -55 -51 11 -105 59 -129
114 -12 28 -19 56 -16 61 4 6 114 10 281 10 l274 0 0 63 c0 79 -24 180 -55
232 -87 149 -266 221 -434 175z m179 -191 c36 -20 69 -67 85 -116 l6 -23 -166
0 -167 0 7 28 c27 109 142 163 235 111z"/>
<path d="M23405 2394 c-72 -17 -100 -30 -150 -67 -110 -84 -157 -187 -156
-342 0 -197 103 -342 280 -395 79 -23 124 -25 201 -6 107 26 197 89 247 173
132 226 49 517 -176 615 -60 26 -182 37 -246 22z m164 -219 c124 -64 134 -283
17 -363 -26 -17 -46 -22 -101 -22 -68 0 -69 0 -111 44 -48 50 -70 125 -58 193
9 54 50 121 87 144 39 23 125 26 166 4z"/>
<path d="M24430 2398 c-74 -29 -115 -57 -147 -100 -19 -27 -37 -48 -39 -48 -3
0 -2 29 2 65 l7 65 -102 0 -101 0 0 -540 0 -540 111 0 111 0 -4 195 c-2 107 0
195 4 195 4 0 15 -11 23 -24 19 -29 79 -70 120 -81 158 -45 311 44 378 219 24
63 33 219 19 298 -29 154 -140 277 -264 293 -23 3 -54 7 -68 9 -14 2 -36 -1
-50 -6z m87 -229 c101 -63 112 -263 19 -349 -19 -17 -43 -26 -82 -30 -117 -13
-192 61 -194 190 0 73 19 121 65 167 40 41 46 43 100 43 41 0 67 -6 92 -21z"/>
<path d="M25221 2389 c-74 -20 -114 -42 -168 -92 -104 -96 -146 -263 -107
-427 19 -82 49 -133 113 -194 92 -85 208 -119 336 -97 109 18 158 37 210 83
39 34 84 96 73 101 -2 1 -45 16 -96 34 l-93 32 -37 -38 c-52 -54 -122 -71
-185 -43 -24 11 -55 35 -69 53 -28 38 -51 97 -42 110 3 5 129 9 280 9 l274 0
0 63 c0 77 -22 164 -57 229 -82 150 -263 224 -432 177z m179 -191 c41 -28 67
-63 79 -105 l10 -33 -165 0 c-106 0 -164 4 -164 10 0 19 30 84 48 104 44 49
138 60 192 24z"/>
<path d="M26173 2388 c-26 -10 -57 -29 -69 -43 -28 -32 -34 -32 -34 5 l0 30
-110 0 -110 0 2 -392 3 -393 108 -2 107 -2 0 262 c0 326 1 327 134 337 l69 5
35 93 c18 52 31 96 28 100 -4 3 -31 9 -61 12 -40 4 -68 1 -102 -12z"/>
<path d="M11902 2379 c-23 -12 -47 -30 -53 -40 -15 -28 -29 -23 -29 11 l0 30
-107 0 -108 0 1 -38 c0 -20 1 -198 2 -395 l2 -358 105 3 105 3 3 267 2 267 29
30 c26 27 36 30 100 33 l70 3 34 88 c19 48 32 94 28 102 -9 24 -130 20 -184
-6z"/>
<path d="M14325 2389 c-17 -4 -44 -22 -60 -39 -36 -38 -48 -38 -40 0 l7 30
-111 0 -111 0 0 -385 c0 -212 1 -388 3 -392 1 -5 49 -8 107 -8 l105 0 3 272 2
271 31 26 c26 22 40 26 94 26 73 0 70 -4 111 110 14 39 23 78 20 86 -6 16
-110 18 -161 3z"/>
<path d="M18486 2380 c-21 -10 -45 -28 -53 -40 -20 -29 -33 -25 -33 10 l0 30
-110 0 -110 0 2 -392 3 -393 107 -3 107 -3 3 270 3 270 29 30 c26 27 36 30
100 33 l70 3 34 89 c18 49 31 95 28 103 -9 22 -133 17 -180 -7z"/>
<path d="M17242 2088 c4 -318 8 -342 65 -416 43 -57 137 -100 219 -102 50 0
136 30 163 58 14 15 34 34 44 41 18 14 19 12 16 -30 l-4 -44 108 -3 107 -3 0
396 0 395 -110 0 -110 0 3 -242 c2 -272 -1 -286 -66 -327 -43 -26 -131 -29
-166 -5 -46 33 -51 65 -51 329 l0 245 -111 0 -111 0 4 -292z"/>
<path d="M20875 2363 c8 -18 140 -373 237 -636 l50 -138 126 3 125 3 94 255
c51 140 113 309 139 375 25 66 48 128 51 138 5 16 -3 17 -117 15 l-122 -3 -49
-140 c-27 -77 -65 -189 -85 -248 -20 -60 -39 -105 -43 -100 -4 4 -42 117 -86
251 l-80 242 -123 0 c-114 0 -124 -1 -117 -17z"/>
<path d="M26340 1705 l0 -115 115 0 115 0 0 115 0 115 -115 0 -115 0 0 -115z"/>
</g>
</svg>
